<?xml version="1.0" encoding="UTF-8" standalone="no"?>
<!-- Created with Inkscape (http://www.inkscape.org/) -->

<svg
   width="189.85635mm"
   height="56.811783mm"
   viewBox="0 0 189.85635 56.811783"
   version="1.1"
   id="svg5"
   inkscape:version="1.3 (0e150ed, 2023-07-21)"
   sodipodi:docname="logo.svg"
   xmlns:inkscape="http://www.inkscape.org/namespaces/inkscape"
   xmlns:sodipodi="http://sodipodi.sourceforge.net/DTD/sodipodi-0.dtd"
   xmlns="http://www.w3.org/2000/svg"
   xmlns:svg="http://www.w3.org/2000/svg">
  <sodipodi:namedview
     id="namedview7"
     pagecolor="#505050"
     bordercolor="#ffffff"
     borderopacity="1"
     inkscape:showpageshadow="0"
     inkscape:pageopacity="0"
     inkscape:pagecheckerboard="1"
     inkscape:deskcolor="#505050"
     inkscape:document-units="mm"
     showgrid="false"
     inkscape:zoom="0.81849509"
     inkscape:cx="423.94879"
     inkscape:cy="290.16668"
     inkscape:window-width="1392"
     inkscape:window-height="958"
     inkscape:window-x="0"
     inkscape:window-y="485"
     inkscape:window-maximized="0"
     inkscape:current-layer="layer1" />
  <defs
     id="defs2" />
  <g
     inkscape:label="Layer 1"
     inkscape:groupmode="layer"
     id="layer1"
     transform="translate(-3.4236719,-13.115579)">
    <g
       aria-label="TAB"
       id="text236"
       style="font-weight:900;font-size:50.8px;font-family:Montserrat;-inkscape-font-specification:'Montserrat Heavy';fill:#808080;stroke-width:2.64583;stroke-linecap:round;stroke-linejoin:round;stroke-opacity:0;fill-opacity:1">
      <path
         d="m 17.749272,69.927361 v 0 -28.6512 H 3.4236719 v -7.9248 H 39.999671 v 7.9248 H 25.674072 v 28.6512 z"
         id="path5120"
         style="fill:#808080;fill-opacity:1" />
      <path
         d="m 43.911311,69.927361 v -29.0576 q 0,-2.0828 1.016,-3.7592 1.016,-1.7272 2.7432,-2.7432 1.7272,-1.016 3.7592,-1.016 h 21.4884 q 2.0828,0 3.7592,1.016 1.7272,1.016 2.7432,2.7432 1.0668,1.6764 1.0668,3.7592 v 29.0576 h -7.9756 v -11.7856 h -20.7264 v 11.7856 h -7.874 z m 7.874,-19.7104 h 20.7264 v -8.9408 q 0,0 0,0 0,0 0,0 h -20.7264 q 0,0 0,0 0,0 0,0 v 8.9408 z"
         id="path5122"
         style="fill:#808080;fill-opacity:1" />
      <path
         d="m 86.430934,69.927361 v -36.576 h 27.635196 q 2.032,0 3.7084,1.016 1.7272,1.016 2.7432,2.7432 1.0668,1.6764 1.0668,3.7592 v 6.858 q 0,0.6604 -0.1016,1.27 -0.0508,0.5588 -0.254,1.0668 0.762,0.9652 1.27,2.2352 0.508,1.27 0.508,2.54 v 7.5692 q 0,2.032 -1.0668,3.7592 -1.016,1.7272 -2.7432,2.7432 -1.6764,1.016 -3.7592,1.016 H 86.430934 Z m 7.874,-7.9248 h 20.726396 q 0,0 0,0 0,0 0,0 v -6.7056 q 0,0 0,0 0,0 0,0 H 94.304934 q 0,0 0,0 0,0 0,0 v 6.7056 q 0,0 0,0 0,0 0,0 z m 0,-14.6304 h 19.303996 q 0,0 0,0 0,0 0,0 v -6.096 q 0,0 0,0 0,0 0,0 H 94.304934 q 0,0 0,0 0,0 0,0 v 6.096 q 0,0 0,0 0,0 0,0 z"
         id="path5124"
         style="fill:#808080;fill-opacity:1" />
    </g>
    <g
       aria-label="9"
       id="text1103"
       class="nine"
       style="font-weight:900;font-size:50.8px;font-family:Orbitron;-inkscape-font-specification:'Orbitron Heavy';fill:#ffd755;stroke-width:2.64583;stroke-linecap:round;stroke-linejoin:round;stroke-opacity:0;fill-opacity:1">
      <path
         d="m 143.92115,69.800919 q -1.8288,0 -3.4036,-1.016 -1.5748,-1.0668 -2.6924,-2.794 -1.1176,-1.778 -1.4732,-3.9624 h 28.2956 q 0,0 0,0 0,0 0,0 v -6.5024 q 0,0 0,0 0,0 0,0 h -20.7264 q -2.032,0 -3.7084,-1.016 -1.6764,-1.016 -2.6924,-2.6924 -1.016,-1.6764 -1.016,-3.7084 v -7.5184 q 0,-2.032 1.016,-3.7084 1.016,-1.6764 2.6924,-2.6416 1.6764,-1.016 3.7084,-1.016 h 21.1328 q 2.032,0 3.7084,1.016 1.6764,0.9652 2.6416,2.6416 1.016,1.6764 1.016,3.7084 v 21.844 q 0,1.9812 -1.016,3.6576 -0.9652,1.6764 -2.6416,2.6924 -1.6764,1.016 -3.7084,1.016 h -21.1328 z m 0.4064,-22.098 v 0 h 20.32 v -6.7056 q 0,0 0,0 0,0 0,0 h -20.32 q 0,0 0,0 0,0 0,0 v 6.7056 q 0,0 0,0 0,0 0,0 z"
         style="fill:#ffd755;fill-opacity:1"
         id="path5127" />
    </g>
    <rect
       style="fill:#ffd755;fill-opacity:1;stroke-width:1.53205;stroke-linecap:round;stroke-linejoin:round;stroke-opacity:0"
       class="nine"
       id="rect1259"
       width="16.587442"
       height="3.5754361"
       x="100.70604"
       y="145.08661"
       ry="1.7877181"
       transform="rotate(-45)" />
    <rect
       style="fill:#ffd755;fill-opacity:1;stroke-width:1.53205;stroke-linecap:round;stroke-linejoin:round;stroke-opacity:0"
       class="nine"
       id="rect1259-3"
       width="16.587442"
       height="3.5754361"
       x="148.28818"
       y="104.91158"
       ry="1.7877181"
       transform="rotate(-22.476779)" />
    <rect
       style="fill:#ffd755;fill-opacity:1;stroke-width:1.53205;stroke-linecap:round;stroke-linejoin:round;stroke-opacity:0"
       class="nine"
       id="rect1259-6"
       width="16.587442"
       height="3.5754361"
       x="48.575531"
       y="160.35645"
       ry="1.7877181"
       transform="rotate(-63.740161)" />
  </g>
</svg>
