<?xml version="1.0" encoding="utf-8"?>
<!-- Generator: Adobe Illustrator 21.0.0, SVG Export Plug-In . SVG Version: 6.00 Build 0)  -->
<svg version="1.1" id="Capa_1" xmlns="http://www.w3.org/2000/svg" xmlns:xlink="http://www.w3.org/1999/xlink" x="0px" y="0px"
	 viewBox="0 0 131.8562 38.5698" enable-background="new 0 0 131.8562 38.5698" xml:space="preserve">
<g>
	<g>
		<path d="M31.8781,8.6832c0.3609,0,0.6882,0.1864,0.8755,0.4985c0.1385,0.2309,0.388,0.3721,0.6572,0.3721
			c0.2692,0,0.5187-0.1412,0.6572-0.3721c0.1873-0.3122,0.5146-0.4985,0.8755-0.4985c0.4233,0,0.7664-0.343,0.7664-0.7664
			c0-0.4233-0.343-0.7664-0.7664-0.7664c-0.558,0-1.0958,0.1869-1.5327,0.5149c-0.4369-0.328-0.9747-0.5149-1.5327-0.5149
			c-0.4233,0-0.7664,0.343-0.7664,0.7664C31.1117,8.3402,31.4548,8.6832,31.8781,8.6832z"/>
		<path d="M1.7432,8.6832c0.3609,0,0.6882,0.1864,0.8755,0.4985c0.1385,0.2309,0.388,0.3721,0.6572,0.3721
			s0.5187-0.1412,0.6572-0.3721c0.1873-0.3122,0.5146-0.4985,0.8755-0.4985c0.4233,0,0.7664-0.343,0.7664-0.7664
			c0-0.4233-0.343-0.7664-0.7664-0.7664c-0.558,0-1.0958,0.1869-1.5327,0.5149C2.839,7.3374,2.3012,7.1505,1.7432,7.1505
			c-0.4233,0-0.7664,0.343-0.7664,0.7664C0.9768,8.3402,1.3198,8.6832,1.7432,8.6832z"/>
	</g>
	<g>
		<g>
			<path d="M36.5892,25.8648l-8.9465-15.4946c-0.13-0.2252-0.3703-0.3639-0.6303-0.3639c-0.2601,0-0.5003,0.1388-0.6303,0.3639
				l-6.988,12.1037c-0.201,0.3481-0.0817,0.7933,0.2664,0.9943c0.3479,0.201,0.7933,0.0817,0.9943-0.2664l1.5643-2.7095
				l1.8536,1.3714c0.2573,0.1903,0.6086,0.1903,0.8659,0l2.0737-1.5343l2.074,1.5343c0.1286,0.0951,0.2808,0.1428,0.4328,0.1428
				s0.3042-0.0476,0.4328-0.1428l1.8542-1.3717l3.3376,5.7806c-0.7225,1.5914-1.6685,3.0723-2.8152,4.4062
				c-0.262,0.3048-0.2274,0.7644,0.0774,1.0265c0.1374,0.1181,0.3062,0.1759,0.4742,0.1759c0.2048,0,0.4084-0.086,0.5523-0.2534
				c1.3223-1.5383,2.3972-3.2579,3.1949-5.1112C36.7183,26.3054,36.7041,26.0638,36.5892,25.8648z M29.519,20.3732l-2.0741-1.5343
				c-0.2572-0.1903-0.6086-0.1903-0.8658,0l-2.0736,1.5343l-1.5539-1.1497l4.0609-7.0337l4.0611,7.0335L29.519,20.3732z"/>
			<path d="M30.347,32.6597c-3.3416,2.8724-7.6045,4.4543-12.0037,4.4543c-7.2526,0-13.8072-4.2428-16.8004-10.8413l3.3377-5.7805
				l1.8539,1.3716c0.2573,0.1903,0.6086,0.1903,0.8659,0l2.0737-1.5343l2.074,1.5343c0.1286,0.0951,0.2808,0.1428,0.4328,0.1428
				c0.1522,0,0.3042-0.0476,0.4328-0.1428l1.8538-1.3715l8.1154,14.0562c0.201,0.3481,0.6461,0.4675,0.9943,0.2664
				c0.3481-0.201,0.4674-0.6461,0.2664-0.9943l-13.539-23.4504c-0.13-0.2252-0.3702-0.3639-0.6303-0.3639
				c-0.26,0-0.5003,0.1388-0.6303,0.3639L0.0975,25.8648c-0.1149,0.199-0.1291,0.4406-0.0382,0.6517
				c3.1518,7.3222,10.3287,12.0533,18.2841,12.0533c4.7472,0,9.3472-1.7068,12.9526-4.8061
				c0.3048-0.262,0.3396-0.7217,0.0774-1.0265C31.1113,32.4324,30.6519,32.3978,30.347,32.6597z M9.6743,12.1898l4.0609,7.0337
				l-1.5542,1.1497l-2.0741-1.5343c-0.2572-0.1903-0.6086-0.1903-0.8658,0l-2.0737,1.5343l-1.5542-1.1499L9.6743,12.1898z"/>
		</g>
		<path d="M18.3433,11.2399c3.0988,0,5.6199-2.5211,5.6199-5.6199S21.4422,0,18.3433,0s-5.6199,2.5211-5.6199,5.6199
			S15.2445,11.2399,18.3433,11.2399z M18.3433,1.5327c2.2537,0,4.0872,1.8335,4.0872,4.0872s-1.8335,4.0872-4.0872,4.0872
			s-4.0872-1.8335-4.0872-4.0872S16.0897,1.5327,18.3433,1.5327z"/>
	</g>
</g>
<g>
	<path d="M46.9294,13.7804h-1.8623c-0.418,0-0.6455-0.228-0.6455-0.646v-0.1519c0-0.418,0.2275-0.646,0.6455-0.646h1.8623v-4.749
		c0-0.418,0.2275-0.646,0.6455-0.646h0.3037c0.418,0,0.6465,0.228,0.6465,0.646v4.749h4.3311c0.418,0,0.6455,0.228,0.6455,0.646
		v0.1519c0,0.418-0.2275,0.646-0.6455,0.646h-4.3311v10.4487c0,5.0908,3.0771,5.585,4.6348,5.6611
		c0.5703,0.0376,0.7598,0.2275,0.7598,0.6455v0.1899c0,0.3804-0.1514,0.646-0.6455,0.646c-4.4834,0-6.3447-2.8496-6.3447-7.0288
		V13.7804z"/>
	<path d="M67.0671,19.6315h1.2539v-0.646c0-4.2173-2.165-5.6611-5.2051-5.6611c-2.3174,0-4.0654,0.9121-4.9014,1.4438
		c-0.3418,0.228-0.6455,0.1899-0.9121-0.1519l-0.1514-0.228c-0.2666-0.3418-0.2285-0.6841,0.1133-0.9116
		c0.874-0.6079,2.9258-1.71,5.9277-1.71c4.3691,0,6.7246,2.4316,6.7246,7.1812v11.626c0,0.418-0.2275,0.646-0.6455,0.646h-0.3037
		c-0.418,0-0.6465-0.228-0.6465-0.646v-1.8618c0-1.0259,0.1523-1.7095,0.1523-1.7095h-0.0762c0.0381,0-1.71,4.6733-6.6494,4.6733
		c-3.0771,0-6.459-1.71-6.459-5.5093C55.2888,19.7077,63.6862,19.6315,67.0671,19.6315z M61.8239,30.194
		c4.1416,0,6.4971-4.2935,6.4971-8.0547v-1.0259h-1.2158c-3.2295,0-10.1445,0-10.1445,4.939
		C56.9606,28.0666,58.5944,30.194,61.8239,30.194z"/>
	<path d="M72.9968,5.2697c0-0.418,0.2285-0.646,0.6465-0.646h0.3037c0.418,0,0.6455,0.228,0.6455,0.646v9.2329
		c0,0.8735-0.1514,1.5576-0.1514,1.5576h0.0752c0,0,1.6338-4.2935,6.877-4.2935c5.0918,0,8.207,4.0654,8.207,9.9546
		c0,6.041-3.5332,9.9546-8.5107,9.9546c-4.7871,0-6.5732-4.2935-6.5732-4.2935h-0.0752c0,0,0.1514,0.6841,0.1514,1.6719v1.5195
		c0,0.418-0.2275,0.646-0.6455,0.646h-0.3037c-0.418,0-0.6465-0.228-0.6465-0.646V5.2697z M81.1657,30.1178
		c3.7236,0,6.7627-3.0771,6.7627-8.3965c0-5.1294-2.7354-8.397-6.6104-8.397c-3.4961,0-6.7637,2.4697-6.7637,8.4351
		C74.5544,25.9767,76.7204,30.1178,81.1657,30.1178z"/>
	<path d="M92.4528,5.2697c0-0.418,0.2275-0.646,0.6455-0.646h0.3047c0.418,0,0.6455,0.228,0.6455,0.646v21.5811
		c0,2.6592,1.292,2.8872,2.2041,3.0015c0.3418,0.0381,0.6074,0.1519,0.6074,0.6079v0.228c0,0.418-0.1514,0.6836-0.6836,0.6836
		c-1.1016,0-3.7236-0.418-3.7236-3.9893V5.2697z"/>
	<path d="M99.5964,12.8688c0-0.418,0.2285-0.646,0.6465-0.646h0.3037c0.418,0,0.6455,0.228,0.6455,0.646v17.7051
		c0,0.418-0.2275,0.646-0.6455,0.646h-0.3037c-0.418,0-0.6465-0.228-0.6465-0.646V12.8688z M101.7932,5.9975
		c0,0.7587-0.6151,1.3738-1.3738,1.3738c-0.7587,0-1.3738-0.6151-1.3738-1.3738s0.6151-1.3738,1.3738-1.3738
		C101.1781,4.6237,101.7932,5.2388,101.7932,5.9975z"/>
	<path d="M104.6882,28.4841l0.2275-0.2656c0.2656-0.3042,0.5703-0.3042,0.9121-0.0381c0.7979,0.6841,2.6973,1.9375,5.3945,1.9375
		c2.3184,0,4.3701-1.2158,4.3701-3.5713c0-4.8252-10.4492-3.4575-10.4492-9.6504c0-3.3818,2.8496-5.1294,6.0791-5.1294
		c2.7744,0,4.4834,1.064,5.168,1.6338c0.3037,0.228,0.3799,0.5317,0.1514,0.874l-0.2275,0.3037
		c-0.2666,0.3418-0.5703,0.3418-0.9121,0.0762c-0.6836-0.5322-2.1279-1.3301-4.293-1.3301c-2.166,0-4.2939,0.9878-4.2939,3.4575
		c0,4.9395,10.4482,3.4575,10.4482,9.7646c0,3.0396-2.583,5.1294-6.0791,5.1294c-3.4189,0-5.585-1.52-6.4209-2.3179
		C104.4597,29.0925,104.4597,28.7883,104.6882,28.4841z"/>
	<path d="M119.28,28.4841l0.2285-0.2656c0.2656-0.3042,0.5703-0.3042,0.9121-0.0381c0.7979,0.6841,2.6973,1.9375,5.3945,1.9375
		c2.3184,0,4.3701-1.2158,4.3701-3.5713c0-4.8252-10.4492-3.4575-10.4492-9.6504c0-3.3818,2.8496-5.1294,6.0791-5.1294
		c2.7744,0,4.4834,1.064,5.168,1.6338c0.3037,0.228,0.3799,0.5317,0.1514,0.874l-0.2275,0.3037
		c-0.2666,0.3418-0.5703,0.3418-0.9121,0.0762c-0.6836-0.5322-2.1279-1.3301-4.293-1.3301c-2.166,0-4.2939,0.9878-4.2939,3.4575
		c0,4.9395,10.4482,3.4575,10.4482,9.7646c0,3.0396-2.583,5.1294-6.0791,5.1294c-3.4189,0-5.585-1.52-6.4209-2.3179
		C119.0524,29.0925,119.0524,28.7883,119.28,28.4841z"/>
</g>
</svg>
