<?xml version="1.0" encoding="UTF-8" standalone="no"?>
<!-- Created with Inkscape (http://www.inkscape.org/) -->

<svg
   width="256"
   height="256"
   viewBox="0 0 64 64"
   version="1.1"
   id="svg5"
   inkscape:version="1.3 (0e150ed, 2023-07-21)"
   sodipodi:docname="favicon.svg"
   inkscape:export-filename="../../../target/shared/icons/32.png"
   inkscape:export-xdpi="12"
   inkscape:export-ydpi="12"
   xmlns:inkscape="http://www.inkscape.org/namespaces/inkscape"
   xmlns:sodipodi="http://sodipodi.sourceforge.net/DTD/sodipodi-0.dtd"
   xmlns="http://www.w3.org/2000/svg"
   xmlns:svg="http://www.w3.org/2000/svg">
  <sodipodi:namedview
     id="namedview7"
     pagecolor="#505050"
     bordercolor="#ffffff"
     borderopacity="1"
     inkscape:showpageshadow="0"
     inkscape:pageopacity="0"
     inkscape:pagecheckerboard="1"
     inkscape:deskcolor="#505050"
     inkscape:document-units="px"
     showgrid="false"
     inkscape:zoom="0.81849509"
     inkscape:cx="353.08703"
     inkscape:cy="220.52667"
     inkscape:window-width="1392"
     inkscape:window-height="958"
     inkscape:window-x="0"
     inkscape:window-y="485"
     inkscape:window-maximized="0"
     inkscape:current-layer="layer1" />
  <defs
     id="defs2" />
  <g
     inkscape:label="Layer 1"
     inkscape:groupmode="layer"
     id="layer1"
     transform="translate(-136.35195,-13.115579)">
    <g
       aria-label="9"
       id="text1103"
       style="font-weight:900;font-size:50.8px;font-family:Orbitron;-inkscape-font-specification:'Orbitron Heavy';fill:#ffd755;stroke-width:2.64583;stroke-linecap:round;stroke-linejoin:round;stroke-opacity:0;fill-opacity:1"
       transform="translate(3.70225,3.6998637)">
      <path
         d="m 143.92115,69.800919 q -1.8288,0 -3.4036,-1.016 -1.5748,-1.0668 -2.6924,-2.794 -1.1176,-1.778 -1.4732,-3.9624 h 28.2956 q 0,0 0,0 0,0 0,0 v -6.5024 q 0,0 0,0 0,0 0,0 h -20.7264 q -2.032,0 -3.7084,-1.016 -1.6764,-1.016 -2.6924,-2.6924 -1.016,-1.6764 -1.016,-3.7084 v -7.5184 q 0,-2.032 1.016,-3.7084 1.016,-1.6764 2.6924,-2.6416 1.6764,-1.016 3.7084,-1.016 h 21.1328 q 2.032,0 3.7084,1.016 1.6764,0.9652 2.6416,2.6416 1.016,1.6764 1.016,3.7084 v 21.844 q 0,1.9812 -1.016,3.6576 -0.9652,1.6764 -2.6416,2.6924 -1.6764,1.016 -3.7084,1.016 z m 0.4064,-22.098 v 0 h 20.32 v -6.7056 q 0,0 0,0 0,0 0,0 h -20.32 q 0,0 0,0 0,0 0,0 v 6.7056 q 0,0 0,0 0,0 0,0 z"
         style="fill:#ffd755;fill-opacity:1"
         id="path5127" />
    </g>
    <rect
       style="fill:#ffd755;fill-opacity:1;stroke-width:1.53205;stroke-linecap:round;stroke-linejoin:round;stroke-opacity:0"
       id="rect1259"
       width="16.587442"
       height="3.5754361"
       x="100.70773"
       y="150.32068"
       ry="1.7877181"
       transform="rotate(-45)" />
    <rect
       style="fill:#ffd755;fill-opacity:1;stroke-width:1.53205;stroke-linecap:round;stroke-linejoin:round;stroke-opacity:0"
       id="rect1259-3"
       width="16.587442"
       height="3.5754361"
       x="150.29469"
       y="109.7458"
       ry="1.7877181"
       transform="rotate(-22.476779)" />
    <rect
       style="fill:#ffd755;fill-opacity:1;stroke-width:1.53205;stroke-linecap:round;stroke-linejoin:round;stroke-opacity:0"
       id="rect1259-6"
       width="16.587442"
       height="3.5754361"
       x="46.895535"
       y="165.31357"
       ry="1.7877181"
       transform="rotate(-63.740161)" />
  </g>
</svg>
