<!--
    SVG Icons are from Microsoft Fluent UI System Icons:
    https://github.com/microsoft/fluentui-system-icons
    Under the MIT License:
    https://github.com/microsoft/fluentui-system-icons/blob/master/LICENSE
-->
<svg id="download_bold" width="100%" height="100%" viewBox="0 0 14 14"
    xmlns="http://www.w3.org/2000/svg">
    <path d="M2.5,12.25L11.5,12.25C11.914,12.25 12.25,12.586 12.25,13C12.25,13.38 11.968,13.694 11.602,13.743L11.5,13.75L2.5,13.75C2.086,13.75 1.75,13.414 1.75,13C1.75,12.62 2.032,12.307 2.398,12.257L2.5,12.25L11.5,12.25L2.5,12.25ZM6.898,0.257L7,0.25C7.38,0.25 7.693,0.532 7.743,0.898L7.75,1L7.75,8.688L10.005,6.434C10.272,6.168 10.688,6.144 10.982,6.362L11.066,6.434C11.332,6.7 11.356,7.117 11.139,7.411L11.066,7.495L7.53,11.03C7.264,11.297 6.847,11.321 6.554,11.103L6.47,11.03L2.934,7.495C2.641,7.202 2.641,6.727 2.934,6.434C3.2,6.168 3.617,6.144 3.911,6.362L3.995,6.434L6.25,8.69L6.25,1C6.25,0.62 6.532,0.307 6.898,0.257L7,0.25L6.898,0.257Z"/>
</svg>