<!--
    SVG Icons are from Microsoft Fluent UI System Icons:
    https://github.com/microsoft/fluentui-system-icons
    Under the MIT License:
    https://github.com/microsoft/fluentui-system-icons/blob/master/LICENSE
-->
<svg id="download_light" width="100%" height="100%" viewBox="0 0 14 14"
    xmlns="http://www.w3.org/2000/svg">
    <path d="M2.5,12.5L11.5,12.5C11.776,12.5 12,12.724 12,13C12,13.246 11.823,13.45 11.59,13.492L11.5,13.5L2.5,13.5C2.224,13.5 2,13.276 2,13C2,12.755 2.177,12.55 2.41,12.508L2.5,12.5L11.5,12.5L2.5,12.5ZM6.91,0.508L7,0.5C7.245,0.5 7.45,0.677 7.492,0.91L7.5,1L7.5,9.792L10.182,7.111C10.355,6.937 10.625,6.918 10.82,7.053L10.889,7.111C11.063,7.284 11.082,7.554 10.947,7.749L10.889,7.818L7.354,11.354C7.18,11.527 6.911,11.546 6.716,11.411L6.646,11.354L3.111,7.818C2.916,7.623 2.916,7.306 3.111,7.111C3.284,6.937 3.554,6.918 3.749,7.053L3.818,7.111L6.5,9.792L6.5,1C6.5,0.755 6.677,0.55 6.91,0.508L7,0.5L6.91,0.508Z"/>
</svg>