<svg xmlns="http://www.w3.org/2000/svg" viewBox="0 0 131.86 38.57"><path d="M31.88 8.68c.36 0 .7.2.87.5.14.23.4.37.66.37.28 0 .53-.14.67-.37.2-.3.5-.5.87-.5.43 0 .77-.34.77-.76 0-.43-.33-.77-.76-.77-.55 0-1.1.2-1.53.52-.43-.33-.96-.52-1.52-.52-.43 0-.77.34-.77.77 0 .42.35.76.78.76zM1.74 8.68c.36 0 .7.2.88.5.14.23.4.37.66.37s.5-.14.65-.37c.2-.3.52-.5.88-.5.43 0 .78-.34.78-.76 0-.43-.35-.77-.77-.77-.55 0-1.1.2-1.52.52-.44-.33-.98-.52-1.54-.52-.42 0-.76.34-.76.77 0 .42.34.76.76.76z"/><g><path d="M36.6 25.86l-8.96-15.5c-.13-.22-.37-.35-.63-.35-.25 0-.5.15-.62.37l-7 12.1c-.2.35-.07.8.28 1 .35.2.8.08 1-.27l1.56-2.7 1.85 1.36c.26.2.6.2.87 0L27 20.33l2.1 1.53c.1.1.27.15.42.15s.3-.04.43-.14l1.86-1.37 3.34 5.77c-.72 1.6-1.66 3.07-2.8 4.4-.27.3-.24.77.07 1.04.14.12.3.18.48.18.2 0 .4-.08.55-.25 1.32-1.54 2.4-3.26 3.2-5.1.1-.22.07-.47-.04-.67zm-7.08-5.5l-2.08-1.52c-.25-.2-.6-.2-.86 0l-2.07 1.53-1.55-1.15L27 12.2l4.07 7.02-1.55 1.15z"/><path d="M30.35 32.66c-3.34 2.87-7.6 4.45-12 4.45-7.26 0-13.8-4.23-16.8-10.83l3.33-5.78 1.85 1.36c.26.2.6.2.87 0l2.07-1.53 2.08 1.53c.13.1.28.15.43.15.15 0 .3-.04.43-.14l1.87-1.37 8.1 14.05c.2.35.66.47 1 .26.36-.2.47-.63.27-.98L10.3 10.37c-.13-.22-.37-.36-.63-.36s-.5.15-.63.37L.1 25.87c-.12.2-.13.44-.04.65C3.2 33.84 10.4 38.57 18.34 38.57c4.75 0 9.35-1.7 12.96-4.8.3-.27.34-.73.07-1.03-.26-.3-.72-.34-1.02-.08zM9.67 12.2l4.07 7.02-1.56 1.15-2.07-1.53c-.25-.2-.6-.2-.86 0l-2.07 1.53-1.56-1.15 4.07-7.03zM18.34 11.24c3.1 0 5.62-2.52 5.62-5.62S21.44 0 18.34 0s-5.62 2.52-5.62 5.62 2.52 5.62 5.62 5.62zm0-9.7c2.26 0 4.1 1.83 4.1 4.08s-1.84 4.1-4.1 4.1-4.08-1.85-4.08-4.1 1.83-4.1 4.08-4.1z"/></g><g><path d="M46.93 13.78h-1.86c-.42 0-.65-.23-.65-.65v-.15c0-.42.23-.64.65-.64h1.86V7.6c0-.43.23-.66.64-.66h.3c.43 0 .66.23.66.65v4.74h4.33c.4 0 .64.22.64.64v.15c0 .42-.23.65-.64.65h-4.33v10.45c0 5.1 3.07 5.58 4.63 5.66.57.03.76.22.76.64v.2c0 .37-.15.63-.65.63-4.48 0-6.34-2.85-6.34-7.03V13.78zM67.07 19.63h1.25V19c0-4.23-2.16-5.68-5.2-5.68-2.32 0-4.07.92-4.9 1.45-.35.23-.65.2-.92-.15l-.15-.23c-.27-.35-.23-.7.1-.92.9-.6 2.94-1.7 5.94-1.7 4.36 0 6.72 2.42 6.72 7.17v11.62c0 .42-.23.65-.65.65h-.3c-.42 0-.65-.23-.65-.65V28.7c0-1 .15-1.7.15-1.7h-.07c.04 0-1.7 4.68-6.65 4.68-3.08 0-6.46-1.7-6.46-5.5 0-6.47 8.4-6.55 11.77-6.55zM61.82 30.2c4.15 0 6.5-4.3 6.5-8.06V21.1h-1.2c-3.24 0-10.16 0-10.16 4.95 0 2.02 1.63 4.14 4.86 4.14zM73 5.27c0-.42.23-.65.64-.65h.3c.43 0 .65.23.65.65v9.23c0 .88-.16 1.56-.16 1.56h.08s1.63-4.3 6.87-4.3c5.1 0 8.2 4.07 8.2 9.96 0 6.04-3.53 9.96-8.5 9.96-4.8 0-6.58-4.3-6.58-4.3h-.08s.15.7.15 1.67v1.52c0 .42-.23.65-.65.65h-.3c-.42 0-.65-.23-.65-.65V5.27zm8.17 24.85c3.72 0 6.76-3.08 6.76-8.4 0-5.13-2.74-8.4-6.6-8.4-3.5 0-6.78 2.47-6.78 8.44 0 4.22 2.17 8.36 6.62 8.36zM92.45 5.27c0-.42.23-.65.65-.65h.3c.42 0 .65.23.65.65v21.58c0 2.66 1.3 2.9 2.2 3 .34.04.6.15.6.6v.24c0 .4-.14.67-.67.67-1.1 0-3.73-.42-3.73-4V5.28zM99.6 12.87c0-.42.22-.65.64-.65h.3c.42 0 .65.23.65.65v17.7c0 .42-.24.65-.65.65h-.3c-.43 0-.65-.23-.65-.65v-17.7zM101.8 6c0 .76-.62 1.37-1.38 1.37-.76 0-1.37-.6-1.37-1.37s.6-1.38 1.37-1.38c.76 0 1.37.62 1.37 1.38zM104.7 28.48l.22-.26c.26-.3.57-.3.9-.04.8.68 2.7 1.94 5.4 1.94 2.32 0 4.37-1.22 4.37-3.57 0-4.83-10.46-3.46-10.46-9.65 0-3.4 2.85-5.13 6.08-5.13 2.78 0 4.5 1.06 5.17 1.63.3.23.37.53.14.87l-.23.3c-.25.35-.56.35-.9.08-.68-.53-2.13-1.33-4.3-1.33-2.16 0-4.28 1-4.28 3.46 0 4.94 10.44 3.46 10.44 9.77 0 3.04-2.58 5.13-6.08 5.13-3.4 0-5.58-1.52-6.42-2.32-.3-.27-.3-.57-.07-.88zM119.28 28.48l.23-.26c.27-.3.58-.3.92-.04.8.68 2.7 1.94 5.4 1.94 2.3 0 4.37-1.22 4.37-3.57 0-4.83-10.46-3.46-10.46-9.65 0-3.4 2.85-5.13 6.08-5.13 2.77 0 4.48 1.06 5.16 1.63.3.23.38.53.15.87l-.22.3c-.26.35-.56.35-.9.08-.7-.53-2.13-1.33-4.3-1.33-2.16 0-4.3 1-4.3 3.46 0 4.94 10.46 3.46 10.46 9.77 0 3.04-2.6 5.13-6.08 5.13-3.42 0-5.6-1.52-6.42-2.32-.3-.27-.3-.57-.08-.88z"/></g></svg>
